<svg xmlns="http://www.w3.org/2000/svg" viewBox="0 23.25 312.2821350097656 37.099998474121094" data-asc="1.2"><g fill="#000000"><g fill="#000000" transform="translate(0, 0)"><path d="M9.80 60.30Q6.45 60.30 4.28 59.15Q2.10 58 1.05 56.20Q0 54.40 0 52.50Q0 50.65 0.90 48.98Q1.80 47.30 3.48 46.20Q5.15 45.10 7.45 45.10Q7.40 45.55 7.40 45.92Q7.40 46.30 7.40 46.30Q7.40 49.65 8.05 51.58Q8.70 53.50 9.70 54.33Q10.70 55.15 11.75 55.15Q13.35 55.15 14.60 53.88Q15.85 52.60 15.85 50.90Q15.85 49 14.23 47.55Q12.60 46.10 10.10 44.35Q8.70 43.30 7.13 41.97Q5.55 40.65 4.45 38.83Q3.35 37 3.35 34.50Q3.35 31.90 4.58 29.90Q5.80 27.90 7.83 26.52Q9.85 25.15 12.28 24.42Q14.70 23.70 17.10 23.70Q20.05 23.70 21.95 24.65Q23.85 25.60 24.80 27.10Q25.75 28.60 25.75 30.20Q25.75 31.70 24.93 33.08Q24.10 34.45 22.50 35.30Q20.90 36.15 18.55 36.15Q18.70 35.45 18.75 34.88Q18.80 34.30 18.80 33.85Q18.80 31.35 17.72 30.27Q16.65 29.20 15.35 29.20Q14.10 29.20 12.95 30.13Q11.80 31.05 11.80 33.10Q11.80 34.85 12.73 36.10Q13.65 37.35 15.13 38.30Q16.60 39.25 18.25 40.15Q19.95 41.05 21.52 42.13Q23.10 43.20 24.15 44.65Q25.20 46.10 25.20 48.30Q25.20 50.60 23.95 52.77Q22.70 54.95 20.55 56.63Q18.40 58.30 15.63 59.30Q12.85 60.30 9.80 60.30ZM39.05 60.35Q35.40 60.35 33 58.88Q30.60 57.40 29.40 54.98Q28.20 52.55 28.20 49.75Q28.20 47.10 29.23 44.42Q30.25 41.75 32.23 39.55Q34.20 37.35 37.03 36Q39.85 34.65 43.40 34.65Q47.80 34.65 49.83 36.63Q51.85 38.60 51.85 41.40Q51.85 43.80 50.58 45.83Q49.30 47.85 47.20 49.08Q45.10 50.30 42.60 50.30Q41.30 50.30 39.95 49.90Q38.60 49.50 37.30 48.65Q37.55 51.75 39.10 53.15Q40.65 54.55 42.80 54.55Q44.30 54.55 45.80 53.98Q47.30 53.40 48.58 52.48Q49.85 51.55 50.55 50.50L50.90 50.75Q50.90 53.35 49.83 55.17Q48.75 57 47 58.15Q45.25 59.30 43.17 59.83Q41.10 60.35 39.05 60.35M40.20 46.85Q41.80 46.85 42.80 45.92Q43.80 45 44.30 43.75Q44.80 42.50 44.80 41.55Q44.80 40.40 44.15 39.63Q43.50 38.85 42.35 38.85Q41.45 38.85 40.38 39.50Q39.30 40.15 38.45 41.72Q37.60 43.30 37.35 46.10Q38.95 46.85 40.20 46.85ZM59.75 60.20Q57.95 60.20 56.52 58.73Q55.10 57.25 55.10 54.65Q55.10 53.35 55.45 51.67Q55.80 50 56.23 48.25Q56.65 46.50 57 44.95Q57.35 43.40 57.35 42.35Q57.35 41.50 56.95 40.97Q56.55 40.45 55.90 40.45Q55.05 40.45 54.05 41.45L53.75 41.25Q53.70 40.45 54.10 39.35Q54.50 38.25 55.40 37.22Q56.30 36.20 57.75 35.50Q59.20 34.80 61.20 34.80Q63.45 34.80 64.58 36.38Q65.70 37.95 65.70 40.15Q65.70 40.40 65.70 40.67Q65.70 40.95 65.65 41.20Q66.60 39.65 67.88 38.20Q69.15 36.75 70.78 35.77Q72.40 34.80 74.30 34.80Q76.75 34.80 77.70 36.38Q78.65 37.95 78.65 39.95Q78.65 40.35 78.63 40.72Q78.60 41.10 78.55 41.45Q79.60 39.90 80.88 38.38Q82.15 36.85 83.80 35.83Q85.45 34.80 87.60 34.80Q90.25 34.80 91.22 36.35Q92.20 37.90 92.20 40Q92.20 41.85 91.75 44.23Q91.30 46.60 90.85 48.90Q90.40 51.20 90.40 52.80Q90.40 53.75 90.68 54.35Q90.95 54.95 91.60 54.95Q92.15 54.95 92.63 54.63Q93.10 54.30 93.30 53.85L93.70 54Q93.70 55.85 92.65 57.25Q91.60 58.65 90 59.42Q88.40 60.20 86.80 60.20Q84.85 60.20 83.38 58.90Q81.90 57.60 81.90 54.60Q81.90 52.75 82.38 50.60Q82.85 48.45 83.33 46.42Q83.80 44.40 83.80 43.10Q83.80 41.25 82.50 41.25Q81.55 41.25 80.63 42.02Q79.70 42.80 78.97 44.08Q78.25 45.35 77.80 46.75Q77.35 48.15 77.35 49.45Q77.35 50.65 77.63 52.08Q77.90 53.50 77.90 54.80Q77.90 57.40 76.45 58.80Q75 60.20 73.05 60.20Q71.25 60.20 69.83 59Q68.40 57.80 68.40 55.40Q68.40 54.30 68.70 52.73Q69 51.15 69.38 49.42Q69.75 47.70 70.05 46.10Q70.35 44.50 70.35 43.30Q70.35 42.35 70.08 41.80Q69.80 41.25 69 41.25Q67.85 41.25 66.80 42.40Q65.75 43.55 65 45.17Q64.25 46.80 64 48.30Q63.95 48.65 63.93 48.85Q63.90 49.05 63.90 49.05Q63.90 50.60 64.25 51.88Q64.60 53.15 64.60 54.50Q64.60 56.95 63.13 58.58Q61.65 60.20 59.75 60.20ZM105.50 33.25Q103.50 33.25 102.22 32.02Q100.95 30.80 100.95 28.95Q100.95 26.95 102.45 25.50Q103.95 24.05 106.10 24.05Q108.10 24.05 109.38 25.30Q110.65 26.55 110.65 28.40Q110.65 30.40 109.15 31.82Q107.65 33.25 105.50 33.25M102 60.20Q100.05 60.20 98.50 58.83Q96.95 57.45 96.95 54.40Q96.95 52.65 97.42 51.13Q97.90 49.60 98.52 48.15Q99.15 46.70 99.63 45.33Q100.10 43.95 100.10 42.60Q100.10 41.40 99.70 40.88Q99.30 40.35 98.75 40.35Q97.90 40.35 97.10 41.45L96.75 41.25Q96.95 39.25 98.02 37.83Q99.10 36.40 100.67 35.60Q102.25 34.80 103.80 34.80Q105.70 34.80 107.10 36.02Q108.50 37.25 108.50 40Q108.50 41.65 108.02 43.47Q107.55 45.30 106.92 47.10Q106.30 48.90 105.82 50.45Q105.35 52 105.35 53.10Q105.35 54.05 105.72 54.45Q106.10 54.85 106.55 54.85Q107 54.85 107.42 54.58Q107.85 54.30 108.05 53.95L108.40 54.05Q108.40 55.90 107.42 57.27Q106.45 58.65 105 59.42Q103.55 60.20 102 60.20ZM118.20 60.15Q116.35 60.15 114.85 58.67Q113.35 57.20 113.35 54.55Q113.35 53.25 113.70 51.60Q114.05 49.95 114.47 48.25Q114.90 46.55 115.25 45.05Q115.60 43.55 115.60 42.60Q115.60 41.60 115.20 41.02Q114.80 40.45 114.15 40.45Q113.30 40.45 112.30 41.45L112 41.25Q111.95 40.45 112.35 39.35Q112.75 38.25 113.57 37.22Q114.40 36.20 115.70 35.50Q117 34.80 118.80 34.80Q121.45 34.80 122.72 36.33Q124 37.85 124 40.05Q124 40.85 123.85 41.60Q124.90 40.05 126.45 38.47Q128 36.90 129.88 35.85Q131.75 34.80 133.75 34.80Q136.10 34.80 136.95 36.30Q137.80 37.80 137.80 40.05Q137.80 42.15 137.35 44.55Q136.90 46.95 136.45 49.17Q136 51.40 136 52.90Q136 54.90 137.15 54.90Q137.75 54.90 138.20 54.52Q138.65 54.15 138.80 53.80L139.15 53.95Q139.15 55.80 138.13 57.20Q137.10 58.60 135.55 59.38Q134 60.15 132.40 60.15Q130.45 60.15 128.95 58.80Q127.45 57.45 127.45 54.40Q127.45 52.60 127.92 50.50Q128.40 48.40 128.85 46.45Q129.30 44.50 129.30 43.25Q129.30 42.50 129.03 42.08Q128.75 41.65 128.05 41.65Q126.90 41.65 125.52 42.70Q124.15 43.75 123.17 45.50Q122.20 47.25 122.20 49.35Q122.20 50.70 122.52 51.95Q122.85 53.20 122.85 54.65Q122.85 57.35 121.45 58.75Q120.05 60.15 118.20 60.15ZM160 60.25Q158.25 60.25 156.95 59.10Q155.65 57.95 155.65 55.35Q155.65 55.10 155.65 54.85Q155.65 54.60 155.70 54.35Q154.20 57.35 152.33 58.77Q150.45 60.20 148.55 60.20Q146.80 60.20 145.25 58.98Q143.70 57.75 142.75 55.35Q141.80 52.95 141.80 49.55Q141.80 46.05 142.78 43.30Q143.75 40.55 145.35 38.65Q146.95 36.75 148.85 35.77Q150.75 34.80 152.55 34.80Q154.55 34.80 156.15 36.02Q157.75 37.25 158.35 39.90Q158.50 39.05 158.58 38.35Q158.65 37.65 158.65 37.40Q158.70 36.05 160.03 35.40Q161.35 34.75 162.95 34.75Q164.35 34.75 165.60 35.30Q166.85 35.85 167.30 37.15L167.40 37.45Q166.80 38.80 166.20 40.70Q165.60 42.60 165.10 44.67Q164.60 46.75 164.30 48.73Q164 50.70 164 52.20Q164 53.85 164.35 54.48Q164.70 55.10 165.20 55.10Q166.05 55.10 166.75 53.90L167.15 54.10Q167.15 55.80 166.05 57.20Q164.95 58.60 163.30 59.42Q161.65 60.25 160 60.25M151.85 53.90Q153.15 53.90 154.73 51.58Q156.30 49.25 157.45 44.90Q157.55 44.45 157.65 44.02Q157.75 43.60 157.80 43.20Q157 41.35 156.13 40.58Q155.25 39.80 154.40 39.80Q153.15 39.80 152.08 41.13Q151 42.45 150.33 44.45Q149.65 46.45 149.65 48.45Q149.65 51.20 150.28 52.55Q150.90 53.90 151.85 53.90ZM175.85 60.20Q174.05 60.20 172.65 58.73Q171.25 57.25 171.25 54.55Q171.25 53.25 171.55 51.60Q171.85 49.95 172.25 48.23Q172.65 46.50 172.95 44.98Q173.25 43.45 173.25 42.45Q173.25 41.40 172.88 40.77Q172.50 40.15 171.90 40.15Q170.95 40.15 169.95 41.45L169.65 41.25Q169.60 40.45 170 39.35Q170.40 38.25 171.25 37.22Q172.10 36.20 173.43 35.50Q174.75 34.80 176.55 34.80Q179.20 34.80 180.40 36.33Q181.60 37.85 181.60 40Q181.60 40.35 181.57 40.72Q181.55 41.10 181.50 41.45Q183.30 38.20 185.28 36.47Q187.25 34.75 188.95 34.75Q190.55 34.75 191.30 36Q192.05 37.25 192.05 39Q192.05 40.60 191.43 42.25Q190.80 43.90 189.57 44.98Q188.35 46.05 186.60 46L186.40 45.90Q186.35 44.60 185.55 43.85Q184.75 43.10 183.75 43.10Q182.40 43.10 181.22 44.45Q180.05 45.80 180.05 48.35Q180.05 49.90 180.40 51.70Q180.75 53.50 180.75 54.75Q180.75 56.25 180.05 57.50Q179.35 58.75 178.25 59.48Q177.15 60.20 175.85 60.20ZM208.15 60.20Q206.35 60.20 204.90 58.70Q203.45 57.20 203.45 53.75Q203.45 50.95 204.10 48.25Q204.75 45.55 205.58 42.77Q206.40 40 206.98 37.02Q207.55 34.05 207.35 30.75Q206 30.95 204.70 31.45Q203.40 31.95 202.15 32.90Q202.15 29.75 202.70 27.77Q203.25 25.80 204.85 24.90Q206.45 24 209.60 24Q211.30 24 213.40 24.25Q215.50 24.50 217.73 24.75Q219.95 25 221.95 25Q223.90 25 225.45 24.63Q227 24.25 227.85 23.25Q228.85 23.90 229.38 25.02Q229.90 26.15 229.90 27.45Q229.90 28.80 229.28 30.07Q228.65 31.35 227.35 32.17Q226.05 33 223.95 33Q221.75 33 219.15 32.30Q216.55 31.60 213.80 31.10Q214.05 32.20 214.18 33.30Q214.30 34.40 214.30 35.55Q214.30 36.80 214.20 38.02Q214.10 39.25 213.90 40.55Q214.95 40 216.45 39.55Q217.95 39.10 219.53 38.80Q221.10 38.50 222.35 38.50Q223.15 38.50 223.75 38.65Q224.25 39.70 224.25 41.20Q224.25 43.60 223.05 46.10L222.70 46.25Q220.85 45.25 218.43 44.70Q216 44.15 213.35 43.95Q212.85 46.80 212.40 49.75Q211.95 52.70 211.95 55.80Q211.95 56.45 211.98 57.15Q212 57.85 212.05 58.55Q210.40 60.20 208.15 60.20ZM235.65 60.20Q234.30 60.20 233.03 59.52Q231.75 58.85 230.95 57.35Q230.15 55.85 230.15 53.50Q230.15 51.40 230.73 48.58Q231.30 45.75 232.03 42.70Q232.75 39.65 233.30 36.75Q233.85 33.85 233.80 31.60Q233.80 29.45 233.30 28.55L233.25 28.40Q233.80 26.80 235.20 25.90Q236.60 25 238.15 25Q239.90 25 241.28 26.32Q242.65 27.65 242.65 30.75Q242.65 32.40 242.25 34.67Q241.85 36.95 241.30 39.52Q240.75 42.10 240.18 44.60Q239.60 47.10 239.20 49.20Q238.80 51.30 238.80 52.65Q238.80 54.05 239.20 54.58Q239.60 55.10 240.10 55.10Q240.65 55.10 241.15 54.67Q241.65 54.25 241.80 53.90L242.20 54Q242.15 55.80 241.18 57.20Q240.20 58.60 238.73 59.40Q237.25 60.20 235.65 60.20ZM256.15 60.35Q252.40 60.35 249.95 58.85Q247.50 57.35 246.33 54.88Q245.15 52.40 245.15 49.60Q245.15 46.95 246.13 44.30Q247.10 41.65 248.98 39.47Q250.85 37.30 253.55 35.97Q256.25 34.65 259.75 34.65Q263.50 34.65 265.93 36.17Q268.35 37.70 269.53 40.20Q270.70 42.70 270.70 45.55Q270.70 48.15 269.75 50.77Q268.80 53.40 266.93 55.58Q265.05 57.75 262.35 59.05Q259.65 60.35 256.15 60.35M257.50 56.10Q258.85 56.10 259.75 54.70Q260.65 53.30 261.10 51.13Q261.55 48.95 261.55 46.70Q261.55 44.70 261.18 42.92Q260.80 41.15 260.05 40.02Q259.30 38.90 258.10 38.90Q256.80 38.90 255.88 40.30Q254.95 41.70 254.50 43.85Q254.05 46 254.05 48.30Q254.05 50.30 254.43 52.08Q254.80 53.85 255.55 54.98Q256.30 56.10 257.50 56.10ZM280.65 60.20Q278.05 60.20 276.43 58.67Q274.80 57.15 274.80 53.95Q274.80 52.35 275.18 50.58Q275.55 48.80 276.03 47.08Q276.50 45.35 276.85 43.95Q277.20 42.55 277.20 41.70Q277.20 40.85 276.85 40.47Q276.50 40.10 276 40.10Q275.50 40.10 275 40.42Q274.50 40.75 274.15 41.40L273.75 41.25Q273.85 39.20 274.90 37.75Q275.95 36.30 277.53 35.55Q279.10 34.80 280.70 34.80Q282 34.80 283.20 35.33Q284.40 35.85 285.13 36.92Q285.85 38 285.80 39.65Q285.75 40.75 285.40 42.35Q285.05 43.95 284.58 45.77Q284.10 47.60 283.75 49.30Q283.40 51 283.40 52.30Q283.40 53.40 283.73 54.05Q284.05 54.70 284.85 54.70Q285.70 54.70 287.10 53.80Q288.50 52.90 289.90 51.20Q289.60 48.40 289.60 46.25Q289.60 40.75 291.23 38.30Q292.85 35.85 295.30 35.85Q297.10 35.85 297.75 37.05Q298.40 38.25 298.40 40.25Q298.40 43.20 297.40 45.80Q296.40 48.40 295.05 49.95Q295.15 52.20 295.98 53.45Q296.80 54.70 297.95 54.70Q299.10 54.70 300.33 53.40Q301.55 52.10 302.45 49.40Q303.35 46.70 303.50 42.55Q303.55 39.20 303.05 37.65L303.05 37.40Q303.75 36.25 305.28 35.42Q306.80 34.60 308.35 34.60Q309.45 34.60 310.38 35.22Q311.30 35.85 311.85 37.52Q312.40 39.20 312.25 42.35Q312.10 46.75 310.80 50.08Q309.50 53.40 307.48 55.65Q305.45 57.90 303.10 59.05Q300.75 60.20 298.45 60.20Q295.85 60.20 293.70 58.77Q291.55 57.35 290.45 54.75Q288.20 57.10 285.83 58.65Q283.45 60.20 280.65 60.20Z"/></g></g></svg>